# xmcd CD database file
#
# Track frame offsets:
#	150
#	14253
#	25580
#	37149
#	49854
#	68420
#	84596
#	96322
#	110213
#	123980
#	141746
#	154133
#	167027
#
# Disc length: 2372 seconds
#
# Revision: 0
# Processed by: cddbd v1.5.2PL0 Copyright (c) Steve Scherf et al.
# Submitted via: CDex 1.70beta2
#
DISCID=b209420d
DTITLE=Die Drei Damen - Träum weiter
DYEAR=2016
DGENRE=Jazz
TTITLE0=Wunsch
TTITLE1=I dad di scho meng
TTITLE2=Liebeslied an die Cote d'Azur
TTITLE3=So samma im Sommer
TTITLE4=Stückerl vom Paradies
TTITLE5=Männer
TTITLE6=Sternenhimmel
TTITLE7=s' Lebn
TTITLE8=Wenn ich reich wär
TTITLE9=Warten
TTITLE10=Unbekannte
TTITLE11=d' Sunn
TTITLE12=Gehst du mit mir
EXTD=YEAR: 2016
EXTT0=
EXTT1=
EXTT2=
EXTT3=
EXTT4=
EXTT5=
EXTT6=
EXTT7=
EXTT8=
EXTT9=
EXTT10=
EXTT11=
EXTT12=
PLAYORDER=
